# xmcd
#
# Track frame offsets:
#	150
#	77547
#	108167
#	136207
#	173930
#	220605
#
# Disc length: 3278 seconds
# Revision: 0
# Processed by: cddbd v1.5.2PL0 Copyright (c) Steve Scherf et al.
# Submitted via: dBpowerAMP V12.0
#
DISCID=430ccc06
DTITLE=Kenny Burrell and Donald Byrd - All Night Long
DYEAR=1956
DGENRE=Jazz
TTITLE0=All Night Long
TTITLE1=Boo-Lu
TTITLE2=Flickers
TTITLE3=Li'l Hankie
TTITLE4=Body and Soul
TTITLE5=Tune up
EXTD=
EXTT0=
EXTT1=
EXTT2=
EXTT3=
EXTT4=
EXTT5=
PLAYORDER=
